<svg version="1" xmlns="http://www.w3.org/2000/svg" width="933.333" height="933.333" viewBox="0 0 700.000000 700.000000"><path d="M305.1 30.7c-.6 2.1-4 14.1-7.7 26.8-3.6 12.6-6.8 23.9-7.1 25-3.2 11.7-43.5 152-43.7 152.3-.2.2-1.3.4-2.5.5-1.1.1-2.1.4-2.1.7 0 .3-.8.6-1.7.7-1 .1-3.6.7-5.8 1.3-2.2.7-5.5 1.4-7.2 1.7-2 .3-3 .9-2.6 1.6.4.7 0 .8-1.2.4-.9-.4-2.4-.2-3.1.4-.8.6-1.4.8-1.4.4s-.6-.3-1.3.3c-.7.6-2.4 1.3-3.7 1.5-2.1.4-9.8 3-16 5.4-.8.4-1.8.5-2.2.5-.5-.1-.8.2-.8.8 0 .6-.3.9-.7.8-.9-.3-9.4 2.9-13.3 4.9-1.4.7-3.1 1.3-3.7 1.3-.7 0-1.3.5-1.3 1.2 0 .6-.3.9-.6.5-.8-.8-6.4 1.3-6.4 2.4 0 .5-.6.9-1.3.9-.7 0-3.2.9-5.5 2-2.2 1.1-4.6 2-5.2 2-.5 0-1 .5-1 1.1 0 .5-.4.7-1 .4-.5-.3-1-.3-1 .2 0 .8-5.4 3.6-6.6 3.3-.4-.1-1 .3-1.3.8-.3.5-3.1 2.2-6.1 3.7-3 1.5-6.2 3.3-7 4-.8.8-2.2 1.5-3 1.7-.8.2-2.3 1.1-3.4 2-1.1 1-2.6 1.8-3.3 1.8-.7 0-1.3.4-1.3 1 0 .5-.7 1-1.5 1s-1.5.5-1.5 1.1c0 .5-.4.8-.9.5-.5-.4-1.1-.3-1.3.2-.4 1-15.7 11.2-16.8 11.2-.4 0-1 .7-1.4 1.5-.3.8-1.2 1.5-2 1.5s-1.6.4-1.8.8c-.1.4-2.1 2.1-4.3 3.7-5.7 4.3-7.6 5.8-9.7 7.7-1 1-1.8 1.6-1.8 1.3 0-.3-1 .3-2.2 1.5-1.2 1.1-2.6 2-3.2 2-.5 0-.6.3-.3.6.3.4-1 1.9-3.1 3.4-2 1.5-5.4 4.4-7.5 6.4-2.1 2-4 3.6-4.3 3.6-1.4 0-18.3 18.4-18.6 20.2-.9 5.9 1.2 9.5 10.8 18.6 5.2 5 9.4 8.8 9.4 8.6 0-.2 1.7 1.3 3.8 3.4 5.4 5.2 19 16.2 20.1 16.2.5 0 1.1.7 1.5 1.5.3.8 1.3 1.5 2.1 1.5.9 0 1.3.4 1 1-.3.6.1 1 .9 1 .9 0 1.6.3 1.6.8 0 .4 1.8 1.8 4 3.2 2.2 1.4 4 2.8 4 3.3 0 .4.4.6.9.3.5-.4 1.1-.3 1.3.1.5 1.3 7.6 6.3 8.7 6.3.6 0 1.1.4 1.1.9s1.4 1.4 3 2.1c1.7.7 3 1.6 3 2 0 .4 1.3 1.3 3 2 1.6.7 3 1.7 3 2.2 0 .5.4.7.9.3.5-.3 1.2-.1 1.5.4.5.8 2.8 2.2 15.4 9.3 7.3 4.1 15.7 8.2 16.5 8 .4-.1 1 .5 1.3 1.3.4.8 1.4 1.5 2.3 1.5.9 0 4.1 1.3 7.1 2.8 6.8 3.5 17.2 7.7 18.3 7.4.4-.1.7.3.7.9 0 .5.4.7 1 .4.5-.3 1-.1 1 .6s.3 1 .6.6c.3-.3 2.7.3 5.2 1.4 6 2.6 28.1 10 30.5 10.2.9.1 1.7.5 1.7 1s.6.7 1.4.4c.7-.3 1.9 0 2.5.6.6.6 1.1.8 1.1.5 0-.4 1.5-.1 3.4.7 1.8.8 3.6 1.1 3.9.8.4-.3 1.3 0 2.2.7.9.7 1.8 1 2.2.7.3-.4 1.3-.2 2.2.2.9.5 3.2 1.2 5.1 1.5 4.1.8 6.5 1.4 6.5 1.6 0 .1 1.1.4 2.5.5 4.1.6 8.5 1.4 8.5 1.5 0 .1 1.4.4 3 .6 4.5.8 7 1.2 7.3 1.5.1.1 1 .2 2 .3.9.1 2.3.5 3 .9.7.5 1.2.3 1.2-.5s.3-.9.8-.3c.4.5 1.8 1.1 3.2 1.2 5.3.3 15.6 1.4 18 1.9 1.4.3 3.1.6 3.8.6 1.8.2 1.7.6-2.9 17.8-1.6 6.1-5.1 20.4-5.5 22.5-.3 2-.6 3.1-1.7 7.5-.4 1.4-2.3 9.2-4.3 17.5-4 16.8-10.8 44.9-16 66-4.5 18.5-4.4 17.9-3.5 16.9 1.1-1.3 16.7-23.3 24.2-34.2 9.4-13.8 9.3-13.7 10.2-14 .4-.2.7-.8.7-1.2 0-.5 5.3-8.4 11.8-17.7 6.5-9.2 21.6-31 33.6-48.3 12.1-17.3 22.1-31.7 22.3-31.9.2-.3 2-.6 4.1-.7 3.7-.2 10.8-1 19.2-2.1 2.5-.4 6.2-.7 8.2-.7 2.1-.1 3.8-.4 3.8-.7 0-.4 1.2-.6 2.8-.7 1.5 0 2.9-.1 3.2-.2.7-.2 2.9-.7 7-1.4 1.9-.3 4.9-.9 6.5-1.2 1.7-.4 4.4-.7 6.2-.8 1.7-.1 2.9-.4 2.8-.7-.4-.6 11.6-3.2 12.6-2.7.3.2 1.2-.2 2-.8.8-.6 3.2-1.5 5.4-1.9 2.2-.4 4.4-1 5-1.3.9-.6 3.2-1.1 6.8-1.4.9-.1 1.7-.6 1.7-1s.6-.8 1.4-.8c.8 0 2.5-.4 3.8-.9 1.3-.5 2.6-.9 3-1 1.1-.2 14.9-5.1 17.3-6.1 1.8-.7 5.1-2 6.5-2.5 1.1-.4 4.7-1.9 8.5-3.6 2.2-.9 4.2-1.7 4.5-1.6.3 0 1.6-.6 3-1.3 1.4-.8 2.8-1.3 3.3-1.2.4.1.7-.3.7-.8s.3-.9.8-.9c1.3.3 9.2-3.4 9.2-4.3 0-.4.6-.8 1.3-.8 1.6.1 19.6-9.1 22-11.2 1.1-1 2.4-1.5 2.9-1.2.4.3.8 0 .8-.5 0-.6.6-1.1 1.4-1.1.8 0 2.1-.7 2.9-1.5.8-.8 2.1-1.6 2.8-1.7.7-.2 2.2-1.1 3.3-2 1.1-1 3.2-2.4 4.8-3 1.5-.7 2.8-1.6 2.8-2 0-.5.7-.8 1.5-.8s1.5-.5 1.5-1.1c0-.5.4-.8.9-.5.5.3 1.1-.1 1.5-.9.3-.8 1.2-1.5 2-1.5s1.6-.3 1.8-.8c.2-.4 2.7-2.2 5.6-4.1 2.8-1.8 5.2-3.7 5.2-4.2 0-.4 1.6-1.6 3.5-2.5 1.9-.9 3.5-2 3.5-2.5s.7-.9 1.5-.9 1.5-.5 1.5-1c0-.6.7-1 1.6-1 .8 0 1.2-.4.9-1-.3-.6-.2-1 .3-1s2.1-1.1 3.6-2.5c1.4-1.3 2.6-2.1 2.6-1.8 0 .3 1.1-.6 2.5-2.1 1.3-1.4 2.9-2.6 3.5-2.6.5 0 1-.4 1-.9s1.5-1.9 3.4-3.2c1.9-1.3 3.2-2.7 3-3.1-.3-.4 0-.8.6-.8s2.1-1.1 3.4-2.5c1.3-1.4 2.6-2.5 2.9-2.5 1 0 6.5-5.9 5.9-6.5-.3-.3-.1-.5.5-.5 1.4 0 8.2-6.8 7.5-7.5-.3-.3 0-.5.7-.5.8 0 1.1-.7.7-1.5-.3-.8-.1-1.5.4-1.5 1.2 0 .6-6-.8-8.7-1-1.7-19.1-19.3-25.2-24.3-3.9-3.2-9.8-8.3-12.5-10.8-1.3-1.2-2.8-2.2-3.2-2.2-.4 0-2.2-1.4-4-3-1.8-1.7-3.6-3-4-3-.4 0-2.2-1.2-3.8-2.8-1.7-1.5-3.8-3.2-4.7-3.7-.8-.6-6-4-11.4-7.6-12.1-8.1-18.7-12.3-19.4-12.4-1-.1-8.5-4.9-9.2-5.9-.4-.6-.8-.8-.8-.3 0 .4-1.2 0-2.7-1-1.4-.9-3.3-1.8-4.1-1.9-.8-.2-1.9-.9-2.3-1.6-.5-.7-.9-.9-.9-.4s-.6.3-1.4-.3c-2-1.6-13.9-7.5-14.8-7.3-.5.1-.8-.3-.8-.8s-.3-.9-.7-.8c-.5.1-2.1-.5-3.8-1.2-1.6-.7-3.2-1.4-3.5-1.4-.3-.1-.9-.4-1.5-.8-1.2-.7-18.6-7.9-20-8.3-.5-.1-1.9-.5-3-.9-1.1-.5-4.2-1.6-7-2.7-2.7-1-6.9-2.4-9.2-3.1-2.4-.7-4.3-1.6-4.3-2 0-.4-.6-.5-1.4-.2-.7.3-3-.2-5.1-1-2.1-.9-4.6-1.6-5.6-1.6-1.1 0-1.9-.4-1.9-.8s-.8-.8-1.7-.8c-1.8-.1-2.4-.2-12.9-2.8-3.4-.8-7.2-1.7-8.5-2-1.3-.3-4.6-1.1-7.4-1.7-2.7-.6-6-1.1-7.2-1-1.3 0-2.3-.3-2.3-.7 0-.5-1.6-.8-3.5-.7-1.9.1-3.5-.1-3.5-.5 0-.3-1.2-.7-2.7-.8-1.6 0-5-.4-7.8-.7-2.7-.3-5.5-.7-6.2-.7-.6-.1-1-.6-.8-1.2.8-2.4 10.8-29.3 12-32.1.7-1.7 2.7-7.1 4.5-12 1.7-5 3.5-9.9 4-11 .5-1.1 2.1-5.2 3.5-9 1.5-3.9 3.3-8.8 4.2-11 2.8-7.3 3.1-8.2 8.3-22.1 2.8-7.7 5.7-15.5 6.5-17.4 2.1-5.3 8.9-23.4 9.1-24 0-.3.4-1.2.7-2 .3-.8 1.6-4.1 2.7-7.3 2-5.3 4-7.1 5.5-4.8.3.6 1.5.7 2.8.5 1.2-.3 3.1-.6 4.2-.7 2.3-.2 4.5-2.1 6.8-5.7 1.8-2.9 1.7-11.2-.1-11.8-.7-.2-1.2-.9-1.2-1.6 0-1.3-4.8-4.1-6.2-3.8-1.3.3-1-.8 2.7-10.6 1.9-5.1 3.5-9.7 3.5-10.2 0-.7-29.4-1-84.5-1h-84.4l-1 3.7zm88.2 225.5c1.9 0 4.7 1.2 4.7 1.9 0 .5.4.8.8.6 1.2-.3 8.2 3.6 8.2 4.6 0 .4.5.5 1 .2.6-.3 1-.2 1 .3 0 1 5 3.7 6.3 3.3.5-.1.6.2.3.7-.2.4 1.3 1.9 3.5 3.2 2.1 1.4 3.9 3.1 3.9 3.9 0 .8.3 1.2.6.8.3-.3 3.1 1.9 6.1 4.9 3 3.1 5.2 5.8 4.9 6.1-.6.6-55.5 1-56.1.4-.2-.2.2-2 1-4 .7-2 3.2-8.8 5.6-15.1 4.6-12.6 5.8-14.8 6.9-13 .4.7 1 1.2 1.3 1.2zm54.2 2.2c.6.1 1.5.4 2 .7.6.4 1.8.5 2.8.4.9-.2 1.7 0 1.7.4s2.8 1.3 6.3 2.1c6.6 1.4 6.4 1.4 8.7 2.2.8.3 8.5 3 17 5.9 8.5 2.9 15.7 5.6 15.8 6.1.2.4.9.8 1.7.8.7 0 3 .8 5.1 1.7 2.2.9 4.1 1.7 4.4 1.8.3.1 2.7 1.1 5.3 2.3 2.7 1.2 5.3 2.2 5.8 2.2s.9.5.9 1.2c0 .6.3.8.6.5.4-.4 1.9.2 3.4 1.3s3 1.7 3.4 1.3c.3-.3.6-.1.6.6s.4 1 .8.7c.5-.3 1.8.2 3 1 2 1.4 9.1 5.3 16.7 9.2 1.7.9 3.5 2.1 4.2 2.7.6.7 2.5 1.8 4.2 2.5 1.7.7 3.1 1.7 3.1 2.3 0 .6.3.8.6.4.6-.5 1.4 0 4.7 2.9.7.6 1.4 1 1.7 1 .7 0 6.2 3.6 7.8 5.1.6.6 2.1 1.4 3.1 1.8 1.1.3 2.2 1.2 2.5 2 .3.8 1.2 1.5 2 1.5s1.6.3 1.8.7c.4 1.1 7.2 6 7.9 5.9.3-.1 2.2 1.5 4.1 3.5 2 2 4.5 4 5.7 4.4 1.1.3 2.1 1.2 2.1 2s.8 1.6 1.8 2c1.6.5 4.6 3 15 12.7l4.4 4.1-2.9 2.6c-5.8 5.2-15.2 13.3-17.4 14.9-1.2 1-3.3 2.7-4.6 3.9-1.3 1.3-2.6 2.3-2.8 2.3-.5 0-4.6 3.4-7.1 5.7-.7.7-1.6 1.3-1.9 1.3-.4 0-2.4 1.4-4.4 3-5.5 4.6-6 5-6.6 5-.9 0-9.8 6.3-10.7 7.5-.5.7-.8.7-.8 0s-.3-.7-.8 0c-1.1 1.6-9.2 6.6-9.2 5.8 0-.5-.4-.3-.8.3-.7 1-9.7 6.5-16.4 9.9-2.1 1.1-3.8 2.4-3.8 2.9s-.3.7-.6.3c-.3-.3-2.6.6-5 1.9-2.4 1.4-4.4 2.1-4.4 1.7 0-.4-.4-.3-.8.2-.8 1.2-16.3 8.5-18 8.5-.7 0-1.2.5-1.2 1 0 .6-.3.9-.7.8-.9-.1-3 .6-8 2.8-1.7.8-3.3 1.4-3.6 1.4-.3 0-1.8.5-3.4 1.1-1.5.6-3 1-3.3 1.1-.3 0-1 .4-1.7 1-.7.5-1.6.7-2.2.4-.5-.3-1.1-.2-1.3.4-.1.5-1.4 1.1-2.8 1.4-1.4.2-2.6.5-2.7.5-.2.1-.6.1-1 .2-.5 0-1.4.5-2 1.1-.7.6-1.3.7-1.3.3 0-.4-.6-.3-1.2.3-.7.5-2.9 1.3-4.8 1.7-1.9.4-3.9 1-4.5 1.3-.5.4-1.4.7-2 .9-2.2.5-7.1 1.5-8 1.7-.5.1-1.5.5-2.1.9-.7.4-2.8.8-4.8.9-2 .2-3.6.7-3.6 1.2 0 .4-.6.6-1.4.3-.8-.3-1.7-.1-2 .6-.2.7-.5.7-.5.2-.1-.6 2.7-4 6.2-7.6 7.6-8.1 11.7-12.9 11-12.9-.4 0 .4-.9 1.7-2 1.3-1.1 2-2 1.6-2-.4 0 .7-1.8 2.4-4s2.8-4 2.4-4c-.4 0-.1-.8.7-1.8 2.1-2.5 5.1-8.2 4.4-8.2-.4 0 .3-1.3 1.4-2.9 1.1-1.5 1.8-3.1 1.4-3.5-.3-.3-.1-.6.6-.6s1-.4.6-.9c-.3-.5-.1-1.2.5-1.6.6-.4.8-1.1.5-1.6-.4-.5-.1-.9.4-.9.6 0 1-.3.9-.8-.2-1 1.3-6.5 2.2-7.7.4-.6.6-2.2.5-3.7-.1-1.5.1-2.5.5-2.3.4.3 1.1-1.6 1.5-4.1.3-2.5.9-5.6 1.1-6.7.5-2.4 1.6-14 1.8-20.2.1-2.2-.2-5-.6-6.3-.5-1.5-.4-2.2.5-2.2.8 0 .7-.4-.3-1-1.1-.7-1.1-1-.2-1 .7 0 1-.5.6-1.1-.4-.7-.7-2.1-.8-3.3-.1-1.8 13.2-21.8 34.1-51.2l4.3-6.1-28.1.1c-24.6.1-28.4-.1-30-1.5-1.1-.9-1.9-1.9-1.9-2.3 0-.7-1-2-4-5.5-.8-.9-3.5-4.3-5.9-7.4-2.4-3.2-5.2-6.2-6.3-6.8-1-.5-1.8-1.6-1.8-2.4 0-.7-.9-1.7-2-2-3.1-1-2.4-2.8.8-2 1.5.4 3.2.8 3.7.9zm-208.9 5.3c-.3 1-2.1 7.2-4 13.8-4.8 16.8-5.2 17.9-6.7 20.6-.7 1.3-1.4 2.9-1.5 3.5-.1.6-.9 2.7-1.8 4.5-2.3 5-6.6 18-6.6 20.1 0 1-.3 1.8-.7 1.8-.5 0-.8 1.8-.7 4 0 2.3-.3 4.3-.7 4.6-.4.2-.6 1.3-.4 2.4.2 1.1.1 2-.3 2s-.7 4.2-.7 9.3c0 5-.4 9.5-1 9.9-.6.5-.6.8.1.8s1 1.9.8 5c-.1 3 .2 5 .8 5 .6 0 .6.6-.2 1.5-1 1.2-1 1.5.1 1.6 1 0 1.1.2.1.6-.6.2-.9 1-.5 1.6.9 1.4.8.9 1.8 7.4.4 2.9 1 5.3 1.4 5.3.3 0 .6 1.3.7 2.9.1 1.6.5 3.7.9 4.7.5 1.1.9 2.1 1 2.4.4 1.6 3 9 4.2 11.7.7 1.8 1.3 3.5 1.4 3.8 0 .2 1.5 3.2 3.4 6.6 1.9 3.3 3.5 6.5 3.5 6.9 0 .5.3 1 .8 1.2.4.1 3 3.6 5.7 7.7 2.8 4 5.6 7.6 6.3 7.8.6.3 1.2.9 1.2 1.4 0 .5 2 2.9 4.5 5.4 2.5 2.5 4.2 4.5 3.8 4.6-.5 0 .3.5 1.6 1s2.1 1.2 1.8 1.6c-.8.7-12.7-1.9-12.2-2.7.2-.4-.9-.6-2.5-.5-1.7.1-3-.1-3-.5s-.6-.7-1.2-.8c-2.8-.4-5.4-1-6.8-1.5-4.3-1.8-14.5-4.5-15.2-4.1-.4.3-.8.1-.8-.4 0-.9-7.8-3.7-9.2-3.4-.5.1-.8-.3-.8-1 0-.6-.3-.9-.6-.6-.3.4-1.7 0-3.1-.7-1.5-.8-3-1.2-3.5-.9-.4.3-.8 0-.8-.5 0-.6-.3-1-.7-.9-1.1.2-9.2-3.2-18.2-7.6-2.5-1.1-4.7-2.2-5-2.2-2.9-.7-5.1-1.8-5.1-2.5 0-.5-.5-.9-1.1-.9-.5 0-3.6-1.3-6.7-2.9-12.7-6.5-18.2-9.8-17.5-10.6.5-.4.3-.5-.3-.2s-2.7-.5-4.7-1.8c-2-1.4-4.1-2.5-4.6-2.5-.6 0-1.1-.3-1.1-.8 0-.4-1.3-1.3-2.8-2-1.6-.6-3.8-2.1-5-3.2-1.2-1.2-2.2-1.8-2.2-1.5 0 .6-6.3-3.9-8.8-6.3-.7-.6-1.9-1.2-2.5-1.2-.7 0-1.8-.9-2.5-2.1-.7-1.2-1.6-1.9-1.9-1.6-.3.3-1.6-.4-2.9-1.6-1.4-1.2-3.4-3-4.4-4-1.1-.9-2.4-1.7-2.9-1.7-.6 0-1.7-1-2.5-2.2-.9-1.2-1.6-1.9-1.6-1.5 0 .5-.6.2-1.4-.5-.7-.7-3.7-3.3-6.6-5.8-2.9-2.5-7.8-6.9-10.9-9.8l-5.6-5.3 2.2-1.8c1.3-1.1 2.3-2.4 2.3-3 0-.6.3-1 .8-.9.4.2 1.6-.6 2.7-1.7 1.9-1.8 4.8-4.3 13.5-11.6 1.4-1.1 3.8-3 5.3-4.2 1.5-1.2 3.7-3 4.8-3.9 1.1-.9 4.5-3.3 7.5-5.4 3-2 5.4-4.1 5.4-4.6 0-.4.3-.7.8-.6.4.2 3.6-1.7 7.1-4.2 3.6-2.5 6.8-4.4 7.3-4.3.4.2.8-.2.8-.7 0-.6 1.2-1.6 2.8-2.2 1.5-.7 4.1-2.3 5.8-3.5 1.7-1.3 3.8-2.3 4.7-2.3 1 0 1.7-.4 1.7-1 0-.9 6.1-4.5 8.5-5 .6-.1 2.1-1 3.5-1.9 1.4-.9 4.3-2.6 6.5-3.6 2.2-1.1 4.3-2.4 4.6-2.8.3-.5.8-.8 1-.7.2.1 1.8-.4 3.4-1.1 1.7-.7 3.3-1.2 3.8-1.1.4.1.7-.2.7-.8 0-.6.4-1 .9-1s3-1 5.7-2.2c2.7-1.2 5.2-2.1 5.6-2 .3.1 1.1-.5 1.8-1.3.6-.7 1.8-1.1 2.6-.8.8.3 1.4 0 1.4-.7s.6-1 1.4-.7c.8.3 1.6.3 1.8-.1.4-.9 11-5.2 12.9-5.2.8 0 1.9-.4 2.5-1 .5-.5 1.8-1.1 2.9-1.3 1.1-.2 2.7-.7 3.5-1 2.5-1 17.4-5.6 18.3-5.7.5 0 .6.8.3 1.7zm51 94c.1 4.9.4 10.5.8 12.5 1 6.3 4.7 15 8.9 21.1 3.9 5.7 11 13.7 12.2 13.7.6 0 2 1.1 5 3.8.8.7 1.5 1 1.5.5 0-.4.4-.4.8.2 1 1.4 9.2 5.8 9.2 4.9 0-.3.6-.1 1.4.5 1.2 1 1.2 1.9 0 6.4-.7 2.9-2.9 11.9-4.9 20.2-6 25.6-5.5 24.5-9.3 22.6-.9-.5-3.6-1.5-5.9-2.2-2.4-.7-4.3-1.6-4.3-2.1s-.4-.6-1-.3c-.5.3-1 .1-1-.5 0-.7-.7-1-1.5-.6-.8.3-1.5.1-1.5-.4 0-.6-.5-1-1.1-1-.6 0-2.4-.9-4-2.1-1.6-1.1-2.9-1.8-2.9-1.4 0 .3-.7 0-1.5-.7-.9-.7-2.1-1.8-2.8-2.3-.7-.6-2.4-1.6-3.9-2.4-1.5-.8-2.5-1.8-2.2-2.3.3-.4 0-.8-.5-.8-1.5 0-16.1-13.1-16.1-14.5 0-.5-3.2-4.4-5.8-7.1-.7-.8-1-1.4-.5-1.4.4 0 .3-.4-.2-.8-1.6-1.1-5.7-7.2-4.9-7.2.4 0 0-.8-.9-1.8-2-2.2-7.8-15-8.1-17.9-.2-1.2-.8-2.9-1.6-3.7-.7-.9-1-1.6-.6-1.6.3 0 .2-1-.3-2.3-.5-1.3-1.2-3.9-1.5-5.8-.3-1.9-.8-4.5-1-5.8-.3-1.3-.6-4.2-.7-6.5-.1-2.2-.7-4.7-1.3-5.5-.7-.9-.7-1.3-.1-.9.7.4 1-1.5 1-5.5-.1-3.4 0-6.5.2-7 .2-.4 11.8-.7 25.6-.7h25.2l.1 8.7zm57.2-7.5c-.3.7-2.7 10.3-5.3 21.3-2.7 11-5 20.2-5.1 20.3-.4.6-6.4-3.2-6.4-4 0-.4-.3-.7-.7-.7-2 .3-3.4-.2-2.8-1.1.3-.6 0-1-.7-1-.8 0-2-1-2.8-2.1-.8-1.2-2.5-3.4-3.7-4.9-1.2-1.5-2-3-1.6-3.4.3-.3.1-.6-.5-.6-.7 0-1.1-.3-1-.8 0-.4-.2-1.4-.5-2.2-.3-.8-1-3.1-1.4-5-.8-3.2-.9-5.5-.4-14.3l.1-2.7h16.6c12.9 0 16.5.3 16.2 1.2zm111.6 32c-.3 1.3-.7 3.4-1 4.8-.3 1.4-.9 2.7-1.5 2.8-.5.2-.7.8-.4 1.2.3.5-.2 2.6-1.1 4.7-.9 2.1-1.7 4.2-1.9 4.8-1.4 4.5-1.8 5.5-2.6 5.5-.5 0-.8.3-.7.7.3 1.1-4 9.3-6 11.5-.8 1-1.2 1.8-.9 1.8.4 0-.1.8-1 1.8-1 1-2.7 3.1-3.8 4.6-1.1 1.6-3 3.8-4.2 4.9-1.2 1.1-2 2.4-1.7 2.9.3.5.2.7-.3.6-.4-.2-3.4 2.3-6.5 5.4-3.2 3.1-5.8 5.5-5.8 5.2 0-.3-1.5.6-3.2 2-7.4 5.9-8.3 6.4-7 4 1.1-2.1 12.4-18.2 14.1-20.1.6-.7 1.1-1.5 1.1-1.8 0-.5 13-18.9 15-21.2.5-.7 1-1.4 1-1.7 0-.8 14.4-21.1 15.2-21.4.5-.2.8-.9.8-1.6 0-1 1.9-3.6 2.6-3.6.2 0 .1 1-.2 2.2zM51.8 48.2c-.7.3-1.6.4-2 .1-.5-.2-1.5.1-2.3.7-.8.7-1.5 1-1.5.6 0-1.5-4.3 3.9-5.4 6.7-.9 2.4-1.2 25-1.1 95.2.1 50.6.5 93.1 1 94.5 1.3 4.1 6.2 7.7 9.8 7.1.4 0 .7.5.7 1.1 0 .9.4.8 1-.2.6-.9 1-1 1-.3s1.5.3 4-1c3.7-2.1 6.3-5.5 6.4-8.7.1-.8.5-2.1.9-2.8.5-.7.3-1.2-.4-1.2-.8 0-.8-.4.1-1.5 1-1.2 1-1.5 0-1.5s-1-.3 0-1.5 1-1.5 0-1.5-1-.3 0-1.5 1-1.5 0-1.5-1-.3 0-1.5 1-1.5 0-1.5-1-.3 0-1.5 1-1.5 0-1.5-1-.3 0-1.5 1-1.5 0-1.5-1-.3 0-1.5 1-1.5 0-1.5-1-.3 0-1.5 1-1.5 0-1.5-1-.3 0-1.5 1-1.5 0-1.5-1-.3 0-1.5 1-1.5 0-1.5-1-.3 0-1.5 1-1.5 0-1.5-1-.3 0-1.5 1-1.5 0-1.5-1-.3 0-1.5 1-1.5 0-1.5-1-.3 0-1.5 1-1.5 0-1.5-1-.3 0-1.5c.7-.8.8-1.5.3-1.5-1.1 0-1.1-2.9.1-4.8.4-.7.2-1.2-.4-1.2-.7 0-.8-.6 0-1.9.7-1.4.7-2.2 0-2.6-.8-.5-.7-1.1.1-2.1.9-1.1.9-1.4 0-1.4-.8 0-.9-.5-.1-1.9.7-1.4.7-2.2 0-2.6-.8-.5-.7-1.1.1-2.1.9-1.1.9-1.4 0-1.4-.8 0-.9-.5-.1-1.9.7-1.4.7-2.2 0-2.6-.8-.5-.7-1.1.1-2.1.9-1.1.9-1.4 0-1.4-.8 0-.9-.5-.1-1.9.7-1.4.7-2.2 0-2.6-.8-.5-.7-1.1.1-2.1.9-1.1.9-1.4 0-1.4-.8 0-.9-.5-.1-1.9.7-1.4.7-2.2 0-2.6-.8-.5-.7-1.1.1-2.1.9-1.1.9-1.4 0-1.4-.8 0-.9-.5-.1-1.9.7-1.4.7-2.2 0-2.6-.8-.5-.7-1.1.1-2.1.9-1.1.9-1.4 0-1.4-.8 0-.9-.5-.1-1.9.7-1.4.7-2.2 0-2.6-.8-.5-.7-1.1.1-2.1.9-1.1.9-1.4 0-1.4-.7 0-.9-.5-.6-1.1 1.1-1.6 1.2-6.9.2-6.9-.4 0-.5-.6-.1-1.2 1.1-1.7 1.2-42.9.2-45.1-.6-1.1-.5-1.7.3-1.7.9 0 .9-.3 0-1.4-.9-1.1-.9-1.6.1-2.3.7-.4 39.8-.8 86.9-.8 79.3-.1 85.8-.2 88.2-1.8 5-3.3 7.1-8.8 5.6-14.7-.5-2-5.8-7-7.5-7.1-2.3-.2-2.8-.4-4.1-1.2-.7-.5-1.3-.5-1.3 0 0 .4-1.1.8-2.5.8s-2.5-.3-2.5-.7c0-.4-1-.4-2.2.1-1.3.5-3.2.5-4.3.1-1.1-.4-3-.4-4.2.1-1.5.5-2.3.5-2.3-.2 0-.6-.7-.6-1.9.1-1.4.7-2.2.7-2.6 0-.5-.8-1.1-.8-2 0-1 .8-1.5.8-2 0-.5-.7-1.1-.8-1.9-.1-.7.6-1.8.6-2.6.1-.7-.4-2.4-.4-3.6 0-1.4.6-2.6.5-2.9 0-.4-.6-1.3-.7-2.3-.1-1.1.6-2.4.6-3.5 0-.9-.6-1.7-.6-1.7-.2 0 1-4.1 1-5.7 0-.7-.4-1.4-.3-1.8.3-.4.7-1.2.7-2.6 0-1.2-.7-1.9-.7-1.9-.1 0 .7-.8.7-2.2.2-1.3-.5-3.2-.5-4.3-.1-1.1.4-2.4.5-2.9.2-1.5-.8-6.7-.8-7.3.1-.3.4-1.1.3-1.8-.3-1-.8-1.5-.8-2 0s-1 .8-2 0-1.5-.8-2 0-1 .8-2 0c-.8-.6-1.6-.7-1.9-.2-.5.9-6.4.7-7.4-.2-.2-.3-1.5-.1-2.8.4-1.6.6-2.4.6-2.4-.1 0-.6-.7-.6-1.9.1-1.4.7-2.2.7-2.6 0-.5-.8-1.1-.8-1.9-.1-.9.7-1.6.7-2.3 0-.8-.8-1.3-.8-1.7 0-.5.8-1.3.8-2.7.1-1-.6-1.9-.7-1.9-.2 0 .7-3.9.8-4.7.2-.8-.7-3-.5-4 .2-.6.5-1.4.4-1.8-.2-.5-.8-1-.8-2 0s-1.5.8-2 0-1-.8-2 0c-.9.8-1.5.8-2 0-.3-.6-1.2-.7-1.8-.3-1.6 1-3.8 1-5.9 0-1-.4-1.8-.4-1.8 0 0 1-4.1 1-5.7 0-.7-.4-1.4-.3-1.8.3-.4.7-1.2.7-2.6 0-1.2-.7-1.9-.7-1.9-.1 0 .7-.9.7-2.2.2-1.3-.5-3.3-.5-4.5 0-1.2.4-2.5.4-2.8 0-.3-.5-2-.5-3.9-.1s-3.7.6-3.9.3c-.8-.7-8.8-.9-9.9-.1z"/><path d="M508 48c0 .6-.4.8-1 .5-1.3-.8-6.1 1.8-8.4 4.6-2.3 2.8-2.9 14.8-.6 13.4.6-.3 1 0 1 .8 0 .7 1.7 2.2 3.8 3.3 3.6 1.9 6.1 1.9 68 1.9 57.1-.1 64.2.1 64.3 1.5.1.8.2 39.8.3 86.7.1 79.6.2 85.4 1.9 87.3.9 1.1 1.7 2.5 1.7 3 0 .6.3 1 .8.9 1.4-.2 5.2 1.3 5.2 2.1 0 .5 1.3.5 2.9 0 1.6-.4 3.2-.6 3.5-.2.3.3.6.1.6-.5s.9-1.3 1.9-1.6c1-.2 2.7-1.7 3.7-3.3 1.8-2.7 1.9-7 1.9-96.7 0-51.6-.3-94.1-.7-94.3-.4-.3-.5-1.1-.2-1.9.4-.8-.1-1.8-1-2.1-.9-.3-1.4-.9-1.1-1.4.6-1-3.5-3-7.3-3.3-1.7-.2-3.5-.6-3.8-.9-.3-.3-1.9-.2-3.7.2-1.8.4-4.1.4-5.2 0-1.1-.4-3-.4-4.2.1-1.5.5-2.3.5-2.3-.2 0-.6-.7-.6-1.9.1-1.4.7-2.2.7-2.6 0-.5-.8-1.1-.8-2 0-1 .8-1.5.8-2 0-.5-.7-1.1-.8-1.9-.1-.7.6-1.8.6-2.6.1-.7-.4-2.4-.4-3.6 0-1.4.6-2.6.5-2.9 0-.4-.6-1.3-.7-2.3-.1-.9.5-2.6.5-3.7.1s-3-.4-4.2.1c-1.5.5-2.3.5-2.3-.2 0-.6-.7-.6-1.9.1-1.4.7-2.2.7-2.6 0-.5-.8-1.1-.8-2 0-1 .8-1.5.8-2 0-.5-.7-1.1-.8-1.9-.1-.7.6-1.8.6-2.6.1-.7-.4-2.4-.4-3.6 0-1.4.6-2.6.5-2.9 0-.4-.6-1.3-.7-2.3-.1-1.1.6-2.4.6-3.5 0-.9-.6-1.7-.6-1.7-.2 0 1-4.1 1-5.7 0-.7-.4-1.4-.3-1.8.3-.4.7-1.2.7-2.6 0-1.2-.7-1.9-.7-1.9-.1 0 .7-.8.7-2.2.2-1.3-.5-3.2-.5-4.3-.1-1.1.4-2.4.5-2.9.2-1.5-.8-6.7-.8-7.3.1-.3.4-1.1.3-1.8-.3-1-.8-1.5-.8-2 0s-1 .8-2 0-1.5-.8-2 0-1 .8-2 0c-.8-.6-1.6-.7-1.9-.2-.5.9-6.4.7-7.4-.2-.2-.3-1.5-.1-2.8.4-1.6.6-2.4.6-2.4-.1 0-.6-.6-.6-1.8 0-1.3.7-2.3.6-3-.1-.9-.9-1.2-.9-1.2 0 0 1-.5 1-2 .2-1.4-.8-2-.8-2 0zM45.7 464.3c-2 1.1-4.2 3.4-4.9 5.1-1.9 4.6-2 185.9-.1 189.8.8 1.6 1 2.8.7 2.8-.4 0 .3 1.1 1.6 2.5s2.5 2.3 2.7 2.1c.2-.2 2 .2 4 .9 2.3.8 4.7 1 6.5.5 1.5-.5 2.8-.5 2.8-.1 0 .9 4.3.6 5.9-.4.6-.3 1.1-.2 1.1.2 0 .9 9.1.9 11.5-.1.8-.3 1.5-.2 1.5.2s1.6.7 3.5.7 3.5-.2 3.5-.5.9-.6 2-.6 2 .3 2 .6c0 .8 5.5.4 6.9-.5.6-.3 1.1-.2 1.1.2 0 .9 9.1.9 11.5-.1.8-.3 1.5-.2 1.5.2s1.6.7 3.5.7 3.5-.2 3.5-.5 1.1-.5 2.5-.5 2.5.3 2.5.6c0 .6 8.6.3 10.6-.5.8-.3 1.4-.2 1.4.2s1.6.7 3.5.7 3.5-.2 3.5-.5.9-.6 2-.6 2 .3 2 .6c0 .7 9.5.4 11.5-.4.8-.3 1.5-.2 1.5.2s1.6.7 3.5.7 3.5-.2 3.5-.5.9-.6 2-.6 2 .3 2 .6c0 .7 9.5.4 11.5-.4.8-.3 1.5-.2 1.5.2s1.6.7 3.5.7 3.5-.3 3.5-.6c0-.4 1.5-.4 3.3 0 1.7.4 4.4.4 6 0 1.5-.4 2.7-.4 2.7-.1 0 .8 12.5.6 14.6-.2.8-.3 1.4-.2 1.4.2 0 .8 9.3.7 11.5-.2.8-.3 1.5-.1 1.5.4s1.2.5 2.9 0c1.6-.4 3.2-.6 3.5-.2.3.3.6 0 .6-.7s.4-1 .8-.7c1 .6 5.5-4.2 6-6.4 1.3-6 .1-10-4-13.5-1.2-1.1-3.2-2-4.3-1.9-1.1 0-2.6-.4-3.2-.9-.9-.6-1.3-.5-1.3.4s-.3 1-.8.4c-.7-1.1-5.2-1.6-5.2-.6 0 .3-1.5.5-3.2.4-1.8-.1-3.3-.2-3.3-.3 0-.1-1.2-.3-2.7-.4-1.6-.1-2.8.1-2.8.4 0 .3-.9.6-2 .6s-2-.4-2-.9-.7-.4-1.5.3-1.5.9-1.5.4-1.1-.9-2.5-.9-2.5.2-2.5.5-1.5.4-3.2.3c-1.8-.1-3.3-.2-3.3-.3 0-.1-1.2-.3-2.7-.4-1.6-.1-2.8.1-2.8.4 0 .3-.9.6-2 .6s-2-.4-2-.9-.7-.4-1.5.3-1.5.9-1.5.4-1.1-.9-2.5-.9-2.5.2-2.5.5-1.5.4-3.2.3c-1.8-.1-3.3-.2-3.3-.3 0-.1-1.2-.3-2.7-.4-1.6-.1-2.8.1-2.8.4 0 .3-.9.6-2 .6s-2-.4-2-.9-.7-.4-1.5.3-1.5.9-1.5.4-1.1-.9-2.5-.9-2.5.2-2.5.5-1.5.4-3.2.3c-1.8-.1-3.3-.2-3.3-.3 0-.1-1.2-.3-2.7-.4-1.6-.1-2.8.1-2.8.4 0 .3-.9.6-2 .6s-2-.4-2-.9-.7-.4-1.5.3-1.5.9-1.5.4-1.1-.9-2.5-.9-2.5.2-2.5.5-.9.6-2 .6-2-.4-2-.9-.6-.4-1.4.2c-1 .8-1.6.9-2.1.1-.4-.7-1.2-.7-2.6 0-1.4.8-1.9.7-1.9-.1 0-.9-.3-.9-1.4 0-1 .8-1.6.9-2.1.1-.4-.7-1.2-.7-2.6 0-1.4.8-1.9.7-1.9-.1 0-.9-.3-.9-1.4 0-1 .8-1.6.9-2.1.1-.4-.7-1.2-.7-2.6 0-1.4.8-1.9.7-1.9-.1 0-.9-.3-.9-1.4 0-1 .8-1.6.9-2.1.1-.4-.7-1.2-.7-2.6 0-1.4.8-1.9.7-1.9-.1 0-.9-.3-.9-1.4 0-1 .8-1.6.9-2.1.1-.4-.7-1.2-.7-2.6 0-1.4.8-1.9.7-1.9-.1 0-.9-.3-.9-1.4 0-1 .8-1.6.9-2.1.1-.4-.7-1.2-.7-2.6 0-1.4.8-1.9.7-1.9-.1 0-.9-.3-.9-1.4 0-1 .8-1.6.9-2.1.1-.4-.7-1.2-.7-2.6 0-1.4.8-1.9.7-1.9-.1 0-.9-.3-.9-1.4 0-1 .8-1.6.9-2.1.1-.3-.6-1-.8-1.5-.5-.4.3-1-.2-1.3-.9-.3-.8-.1-1.7.6-2 .9-.5.9-.7-.1-1.2s-1-.9-.1-2 .9-1.4-.1-1.4-1-.3 0-1.5 1-1.5 0-1.5-1-.3 0-1.5 1-1.5 0-1.5-1-.3 0-1.5 1-1.5 0-1.5-1-.3 0-1.5 1-1.5 0-1.5-1-.3 0-1.5 1-1.5 0-1.5-1-.3 0-1.5 1-1.5 0-1.5-1-.3 0-1.5 1-1.5 0-1.5-1-.3 0-1.5 1-1.5 0-1.5-1-.3 0-1.5 1-1.5 0-1.5-1-.3 0-1.5 1-1.5 0-1.5-1-.3 0-1.5 1-1.5 0-1.5-1-.3 0-1.5 1-1.5 0-1.5-1-.3 0-1.5 1-1.5 0-1.5-1-.3 0-1.5 1-1.5 0-1.5-1-.3 0-1.5 1-1.5 0-1.5-1-.3 0-1.5 1-1.5 0-1.5-1-.3 0-1.5 1-1.5 0-1.5-1-.3 0-1.5 1-1.5 0-1.5-1-.3 0-1.5c.7-.8.8-1.5.3-1.5-1.1 0-1.1-2.9.1-4.8.4-.7.2-1.2-.4-1.2-.7 0-.8-.6 0-1.9.7-1.4.7-2.2 0-2.6-.8-.5-.7-1.1.1-2.1.9-1.1.9-1.4 0-1.4-.8 0-.9-.5-.1-1.9.7-1.4.7-2.2 0-2.6-.8-.5-.7-1.1.1-2.1.9-1.1.9-1.4 0-1.4-.8 0-.9-.5-.1-1.9.7-1.4.7-2.2 0-2.6-.8-.5-.7-1.1.1-2.1.9-1.1.9-1.4 0-1.4-.8 0-.9-.5-.1-1.9.7-1.4.7-2.2 0-2.6-.8-.5-.7-1.1.1-2.1.9-1.1.9-1.4 0-1.4-.8 0-.9-.5-.1-1.9.7-1.4.7-2.2 0-2.6-.8-.5-.7-1.1.1-2.1.9-1.1.9-1.4 0-1.4-.8 0-.9-.5-.1-1.9.7-1.4.7-2.2 0-2.6-.8-.5-.7-1.1.1-2.1.9-1.1.9-1.4 0-1.4-.8 0-.9-.5-.1-1.9.7-1.4.7-2.2 0-2.6-.8-.5-.7-1.1.1-2.1.9-1.1.9-1.4 0-1.4-.7 0-.9-.5-.6-1.1 1.1-1.6 1.2-6.9.2-6.9-.4 0-.5-.6-.1-1.2 1.1-1.7 1.2-24.9.2-27.1-.6-1.1-.5-1.7.3-1.7s.8-.4-.1-1.5c-1-1.2-1-1.5 0-1.5s1-.3 0-1.5c-.7-.8-1-1.5-.7-1.5 1.3 0-1.6-5.9-3.8-8-3.2-3-9.2-3.3-13.8-.7zM640.8 463.7c-1.4.7-3.5 2.8-4.6 4.6-1.9 3.2-1.9 5.9-2 87.8 0 46.4-.1 85.1-.1 86-.1 1.8-4.1 3.4-4.1 1.7 0-.7-.5-.6-1.4.1-1 .8-1.6.9-2.1.1-.4-.7-1.2-.7-2.6 0-1.4.8-1.9.7-1.9-.1 0-.9-.3-.9-1.4 0-1 .8-1.6.9-2.1.1-.4-.7-1.2-.7-2.6 0-1.4.8-1.9.7-1.9-.1 0-.9-.3-.9-1.4 0-1 .8-1.6.9-2.1.1-.4-.7-1.2-.7-2.6 0-1.4.8-1.9.7-1.9-.1 0-.9-.3-.9-1.4 0-1 .8-1.6.9-2.1.1-.4-.7-1.2-.7-2.6 0-1.4.8-1.9.7-1.9-.1 0-.9-.3-.9-1.4 0-1 .8-1.6.9-2.1.1-.4-.7-1.2-.7-2.6 0-1.4.8-1.9.7-1.9-.1 0-.9-.3-.9-1.4 0-1 .8-1.6.9-2.1.1-.4-.7-1.2-.7-2.6 0-1.4.8-1.9.7-1.9-.1 0-.9-.3-.9-1.4 0-1 .8-1.6.9-2.1.1-.4-.7-1.2-.7-2.6 0-1.4.8-1.9.7-1.9-.1 0-.9-.3-.9-1.4 0-1 .8-1.6.9-2.1.1-.4-.7-1.2-.7-2.6 0-1.4.8-1.9.7-1.9-.1 0-.9-.3-.9-1.4 0-1 .8-1.6.9-2.1.1-.4-.7-1.2-.7-2.6 0-1.4.8-1.9.7-1.9-.1 0-.9-.3-.9-1.4 0-1 .8-1.6.9-2.1.1-.4-.7-1.2-.7-2.6 0-1.4.8-1.9.7-1.9-.1 0-.9-.3-.9-1.4 0-1 .8-1.6.9-2.1.1-.4-.7-1.2-.7-2.6 0-1.4.8-1.9.7-1.9-.1 0-.9-.3-.9-1.4 0-1 .8-1.6.9-2.1.1-.4-.7-1.2-.7-2.6 0-1.4.8-1.9.7-1.9-.1 0-.9-.3-.9-1.4 0-1 .8-1.6.9-2.1.1-.4-.7-1.2-.7-2.6 0-1.4.8-1.9.7-1.9-.1 0-.9-.3-.9-1.4 0-1 .8-1.6.9-2.1.1-.4-.7-1.2-.7-2.6 0-1.4.8-1.9.7-1.9-.1 0-.9-.3-.9-1.4 0-1 .8-1.6.9-2.1.1-.4-.7-1.2-.7-2.6 0-1.4.8-1.9.7-1.9-.1 0-.9-.3-.9-1.4 0-1 .8-1.6.9-2.1.1-.4-.7-1.2-.7-2.6 0-1.4.8-1.9.7-1.9-.1 0-.9-.3-.9-1.4 0-1 .8-1.6.9-2.1.1-.4-.7-1.2-.7-2.6 0-1.4.8-1.9.7-1.9-.1 0-.9-.3-.9-1.4 0-1 .8-1.6.9-2.1.1-.4-.7-1.2-.7-2.6 0-1.4.8-1.9.7-1.9-.1 0-.9-.3-.9-1.4 0-1 .8-1.6.9-2.1.1-.4-.7-1.2-.7-2.6 0-1.4.8-1.9.7-1.9-.1 0-.9-.3-.9-1.4 0-1 .8-1.6.9-2.1.1-.4-.7-1.2-.7-2.6 0-1.4.8-1.9.7-1.9-.1 0-.9-.3-.9-1.4 0-1 .8-1.6.9-2.1.1-.3-.6-1.2-.7-1.8-.3-1 .6-2.4.9-6.4 1.5-.6.1-1.7 1.2-2.4 2.5-.7 1.2-1.5 2.3-1.9 2.3-.4 0-.8 2.5-.9 5.5-.1 3.5.2 5.5.9 5.5.6 0 .9.4.6.8-.8 1.4 3.8 4.9 7.5 5.8 4.3.9 7.9 1.1 7.9.4 0-.3.9-.6 2-.6s2 .3 2 .6c0 .8 5.5.4 6.9-.5.6-.3 1.1-.2 1.1.2 0 .9 9.1.9 11.5-.1.8-.3 1.5-.2 1.5.2s1.6.7 3.5.7 3.5-.2 3.5-.5 1.1-.5 2.5-.5 2.5.3 2.5.6c0 .8 4.5.3 5.9-.6.6-.3 1.1-.2 1.1.2 0 .9 9.1.9 11.5-.1.8-.3 1.5-.2 1.5.2s1.6.7 3.5.7 3.5-.2 3.5-.5.9-.6 2-.6 2 .3 2 .6c0 .8 5.5.4 6.9-.5.6-.3 1.1-.2 1.1.2 0 .9 9.1.9 11.5-.1.8-.3 1.5-.2 1.5.2s1.6.7 3.5.7 3.5-.2 3.5-.5 1.1-.5 2.5-.5 2.5.3 2.5.6c0 .8 4.5.3 5.9-.6.6-.3 1.1-.2 1.1.2 0 .9 9.1.9 11.5-.1.8-.3 1.5-.2 1.5.2s1.6.7 3.5.7 3.5-.2 3.5-.5.9-.6 2-.6 2 .3 2 .6c0 .8 5.5.4 6.9-.5.6-.3 1.1-.2 1.1.2 0 .9 9.1.9 11.5-.1.8-.3 1.5-.2 1.5.2s1.6.7 3.5.7 3.5-.2 3.5-.5 1.1-.5 2.5-.5 2.5.2 2.5.5c0 .7 7.6.4 13-.5 1.9-.3 4-.6 4.7-.7.7-.1 1-.5.8-.9-.3-.4.2-1 1-1.3.9-.3 2-1.8 2.7-3.3 1.5-3.8 1.9-180.1.4-182.2-.8-1.1-.8-1.3 0-.8s1.1-.6 1-3.3c0-2.2-.5-4-.9-4-.5 0-.7-.5-.5-1.2.5-1.3-4.9-6.7-6.7-6.9-.5 0-2.3-.2-4-.3-1.6-.2-4.2.3-5.7 1.1z"/></svg>